<?xml version="1.0" encoding="utf-8"?>
<!-- Generator: Adobe Illustrator 22.1.0, SVG Export Plug-In . SVG Version: 6.00 Build 0)  -->
<svg version="1.1"
	 id="svg2908" inkscape:version="0.47 r22583" sodipodi:docname="New document 2" xmlns:cc="http://creativecommons.org/ns#" xmlns:dc="http://purl.org/dc/elements/1.1/" xmlns:inkscape="http://www.inkscape.org/namespaces/inkscape" xmlns:rdf="http://www.w3.org/1999/02/22-rdf-syntax-ns#" xmlns:sodipodi="http://sodipodi.sourceforge.net/DTD/sodipodi-0.dtd" xmlns:svg="http://www.w3.org/2000/svg"
	 xmlns="http://www.w3.org/2000/svg" xmlns:xlink="http://www.w3.org/1999/xlink" x="0px" y="0px" viewBox="0 0 950.3 1048.3"
	 style="enable-background:new 0 0 950.3 1048.3;" xml:space="preserve">
<style type="text/css">
	.st0{fill:url(#path2818_1_);}
	.st1{fill:url(#path2820_1_);}
	.st2{opacity:0.5992;fill:#FFFFFF;enable-background:new    ;}
</style>
<defs>
	
	
		<inkscape:perspective  id="perspective2916" inkscape:persp3d-origin="372.04724 : 350.78739 : 1" inkscape:vp_x="0 : 526.18109 : 1" inkscape:vp_y="0 : 1000 : 0" inkscape:vp_z="744.09448 : 526.18109 : 1" sodipodi:type="inkscape:persp3d">
		</inkscape:perspective>
	
		<inkscape:perspective  id="perspective2864" inkscape:persp3d-origin="0.5 : 0.33333333 : 1" inkscape:vp_x="0 : 0.5 : 1" inkscape:vp_y="0 : 1000 : 0" inkscape:vp_z="1 : 0.5 : 1" sodipodi:type="inkscape:persp3d">
		</inkscape:perspective>
</defs>
<sodipodi:namedview  bordercolor="#666666" borderopacity="1.0" id="base" inkscape:current-layer="layer1" inkscape:cx="321.59254" inkscape:cy="631.28672" inkscape:document-units="px" inkscape:pageopacity="0.0" inkscape:pageshadow="2" inkscape:window-height="1005" inkscape:window-maximized="0" inkscape:window-width="609" inkscape:window-x="6" inkscape:window-y="24" inkscape:zoom="0.35" pagecolor="#ffffff" showgrid="false">
	</sodipodi:namedview>
<g id="layer1" transform="translate(-53.407459,456.06003)" inkscape:groupmode="layer" inkscape:label="Layer 1">
	
		<radialGradient id="path2818_1_" cx="639.9948" cy="195.0763" r="104.8582" gradientTransform="matrix(2.3961 0 0 -3.5368 -1012.2546 951.5887)" gradientUnits="userSpaceOnUse">
		<stop  offset="0" style="stop-color:#FF7800"/>
		<stop  offset="1" style="stop-color:#B50300"/>
	</radialGradient>
	<path id="path2818" sodipodi:nodetypes="csssc" class="st0" d="M521.4-398.1C497.8-240.2,247.2,15.2,273,179.1
		c25.1,159.3,161,238.8,259.9,230.4C697.6,395.6,771.8,251.1,771.3,149C770.3-20.2,588.8-150.7,521.4-398.1z"/>
	
		<linearGradient id="path2820_1_" gradientUnits="userSpaceOnUse" x1="572.393" y1="196.3053" x2="584.0484" y2="368.8874" gradientTransform="matrix(2.3961 0 0 -2.3961 -1012.2545 686.09)">
		<stop  offset="0" style="stop-color:#FFF7F2"/>
		<stop  offset="1" style="stop-color:#FC6201;stop-opacity:0"/>
	</linearGradient>
	<path id="path2820" sodipodi:nodetypes="cscss" class="st1" d="M340.4,260.3c62.9,23.5,22.2-107.2,47.2-210.2
		c19.4-79.6,57.8-201.5,72.6-276.7C426.1-153.3,375-75.7,366.3-62.1C310.8,25,244.7,224.6,340.4,260.3L340.4,260.3z"/>
	<path id="path2822" sodipodi:nodetypes="csczc" class="st2" d="M419.6,356.8c0,0,111.7,72.1,236.6-11.2
		c100.3-66.9,97.5-197,97.5-197S740,286.9,628.7,338.5C517.4,390,419.6,355.7,419.6,356.8L419.6,356.8z"/>
</g>
</svg>
