<!-- Generator: Adobe Illustrator 22.1.0, SVG Export Plug-In  -->
<svg version="1.1"
	 xmlns="http://www.w3.org/2000/svg" xmlns:xlink="http://www.w3.org/1999/xlink" xmlns:a="http://ns.adobe.com/AdobeSVGViewerExtensions/3.0/"
	 x="0px" y="0px" width="723px" height="723px" viewBox="0 0 723 723" style="enable-background:new 0 0 723 723;"
	 xml:space="preserve">
<style type="text/css">
	.st0{fill:#FFFFFF;}
</style>
<defs>
</defs>
<g>
	<g>
		<path class="st0" d="M424.6,496.2c-1,1.8-2.2,3.4-3.7,4.9l-43.3,43.3c-8.7,8.7-22.9,8.7-31.6,0l-44.2-44.2
			c-10-10-8.4-26.6,3.3-34.4c14.6-9.8,34.1-15.8,55.5-15.8c12.4,0,24.1,2,34.6,5.6L424.6,496.2z"/>
	</g>
	<g>
		<path class="st0" d="M351.2,394.3c-34.1,1.9-65.5,14.2-90.9,33.8c-4.5,3.4-10.2,8.9-15.4,14.2c-8.2,8.4-21.7,8.4-30,0.1
			c-4.1-4.1-6.2-9.5-6.2-15c0-5.4,2-10.7,6.1-14.8c5.3-5.4,11-11,15.5-14.6c26.3-21.4,58-36.5,92.7-42.9L351.2,394.3z"/>
		<path class="st0" d="M507.8,444.3l-0.2,0.2c-8.4,8.1-21.7,7.8-29.8-0.6c-4.9-5.1-10.2-9.8-15.7-14.2c-9.8-7.8-20.5-14.5-31.9-19.9
			l0,0L389.9,354c38.8,5.6,74.1,22.1,102.8,46.2c5.5,4.6,10.8,9.5,15.7,14.7C516.4,423.1,516,436.3,507.8,444.3z"/>
	</g>
	<g>
		<path class="st0" d="M293.8,314.8c-35.9,9.8-68.7,27.3-96.3,50.7c-5,4.2-9.1,9.7-13.3,14.9c-8.6,10.7-24.7,11.4-34.3,1.6
			c-0.2-0.2-0.4-0.4-0.6-0.6c-9.1-9.6-8.1-25,2.2-33.3c5.3-4.3,11.1-8.2,16-12.5c29-25.1,62.9-44.7,100.1-57L293.8,314.8z"/>
		<path class="st0" d="M573.1,385.1c-0.1,0.1-0.2,0.2-0.4,0.3c-9.6,9.6-24.5,8.9-33.1-1.6c-4.5-5.5-9.2-11.4-14.1-15.7
			C481.2,329.4,423.3,306,360,306c-1.6,0-3.2,0-4.7,0l-29.1-40.4c11.1-1.3,22.4-1.9,33.8-1.9c75.2,0,143.8,28.3,195.9,74.9
			c5,4.4,11,9.2,16.4,14.1C581.9,361.4,582.2,376,573.1,385.1z"/>
	</g>
	<g>
		<path class="st0" d="M237.5,236.8c-39.1,14.9-74.8,36.7-105.5,63.9c-4.3,3.8-10,9.3-15.4,14.6c-8.3,8.2-21.6,8.2-29.9-0.1
			l-0.2-0.2c-8.3-8.3-8.3-21.6,0-29.9c5-5,10.1-9.9,15.3-14.6c32.9-29.5,70-52.8,110-69.4L237.5,236.8z"/>
		<path class="st0" d="M636,319.3l-0.3,0.3c-8.3,8-21.5,7.8-29.5-0.5c-5-5.1-10.1-10.1-15.4-14.9c-61.1-55.7-142.4-89.8-231.4-89.8
			c-22.4,0-44.4,2.2-65.6,6.3l-27-37.4c30-7.3,61-11.1,92.6-11.1c98,0,190.4,36.3,261.9,102.5c3.7,3.4,7.3,6.9,10.9,10.5
			c1.5,1.4,2.9,2.9,4.3,4.4C644.6,297.9,644.3,311.2,636,319.3z"/>
	</g>
</g>
<g>
	<path class="st0" d="M694.6,220.8c-18.2-43.1-44.3-81.7-77.5-114.9s-71.9-59.3-114.9-77.5C457.6,9.5,410.3,0,361.5,0
		s-96.2,9.6-140.7,28.4c-43.1,18.2-81.7,44.3-114.9,77.5s-59.3,71.9-77.5,114.9C9.5,265.4,0,312.7,0,361.5s9.6,96.2,28.4,140.7
		c18.2,43.1,44.3,81.7,77.5,114.9s71.9,59.3,114.9,77.5c44.6,18.9,91.9,28.4,140.7,28.4s96.2-9.6,140.7-28.4
		c43.1-18.2,81.7-44.3,114.9-77.5s59.3-71.9,77.5-114.9c18.8-44.6,28.4-91.9,28.4-140.7S713.4,265.3,694.6,220.8z M533.7,638.8
		c-1.4,0.9-2.8,1.8-4.3,2.6C480.3,671,422.8,688,361.4,688C181.3,688,34.8,541.5,34.8,361.4c0-99,44.3-187.8,114-247.7
		c1.3-1.1,2.5-2.2,3.8-3.2c1.3-1.1,2.6-2.1,3.9-3.2l65,90l25.8,35.8l30.5,42.3l26.5,36.8l29.7,41.2l29.3,40.7l50.6,70.1l0,0
		l13.4,18.6l0,0L537.8,636C536.5,637.1,535.1,638,533.7,638.8z M574,609.2c-1.3,1.1-2.5,2.2-3.8,3.2c-1.3,1.1-2.6,2.1-3.9,3.2
		L412.7,402.7l-36.3-50.3l-33-45.8L315,267.2L283.1,223l-26.7-37l-71.5-99.1c1.4-0.9,2.8-1.8,4.2-2.7c1.4-0.9,2.8-1.8,4.3-2.6
		C242.5,52,300,35,361.4,35C541.5,35,688,181.5,688,361.6C688,460.5,643.7,549.3,574,609.2z"/>
</g>
</svg>