<!-- Generator: Adobe Illustrator 22.1.0, SVG Export Plug-In  -->
<svg version="1.1"
	 xmlns="http://www.w3.org/2000/svg" xmlns:xlink="http://www.w3.org/1999/xlink" xmlns:a="http://ns.adobe.com/AdobeSVGViewerExtensions/3.0/"
	 x="0px" y="0px" width="79.263px" height="50.059px" viewBox="0 0 79.263 50.059"
	 style="enable-background:new 0 0 79.263 50.059;" xml:space="preserve">
<style type="text/css">
	.st0{fill:#FFFFFF;}
	.st1{stroke:#FFFFFF;stroke-width:2.1316;stroke-miterlimit:10;}
</style>
<defs>
</defs>
<path class="st0" d="M0,38.059v0.811v10.658v0.531h79v-12H0z M77,48.059h-2v-8h2V48.059z M63,40.059h2v8h-2V40.059z M73,48.059h-2
	v-8h2V48.059z M69,48.059h-2v-8h2V48.059z M21,40.059h40v8H21V40.059z"/>
<g>
	<g>
		<path class="st1" d="M79.263,48.462"/>
	</g>
</g>
<g>
	<g>
		<path class="st1" d="M79.263,39.936"/>
	</g>
</g>
<g>
	<g>
		<path class="st0" d="M68.165,33.941c-0.338,0-0.67-0.133-0.877-0.381c-2.197-2.63-3.389-4.71-3.389-8.16
			c0-3.536,1.371-5.319,3.793-8.167c4.07-5.031,4.631-10.124,1.75-16.011c-0.223-0.454,0.039-0.972,0.584-1.157
			c0.541-0.184,1.166,0.033,1.389,0.487c3.131,6.396,2.486,12.183-1.969,17.69c-2.311,2.717-3.414,4.148-3.414,7.158
			c0,3.017,0.969,4.708,3.006,7.146c0.338,0.402,0.217,0.956-0.266,1.236C68.587,33.89,68.374,33.941,68.165,33.941z"/>
	</g>
</g>
<g>
	<g>
		<path class="st0" d="M73.493,33.941c-0.336,0-0.668-0.133-0.877-0.381c-2.195-2.63-3.387-4.71-3.387-8.16
			c0-3.536,1.371-5.319,3.793-8.167c4.068-5.031,4.629-10.124,1.748-16.011c-0.223-0.454,0.039-0.972,0.586-1.157
			c0.541-0.184,1.164,0.033,1.387,0.487c3.131,6.396,2.488,12.183-1.967,17.69c-2.311,2.717-3.416,4.148-3.416,7.158
			c0,3.017,0.969,4.708,3.008,7.146c0.336,0.402,0.217,0.956-0.268,1.236C73.917,33.89,73.704,33.941,73.493,33.941z"/>
	</g>
</g>
</svg>